<svg width="750" height="153.256" xml:space="preserve" xmlns="http://www.w3.org/2000/svg">
  <g style="stroke-width:1.23424">
    <g style="stroke-width:1.23424">
      <path fill="#00749a" d="M313.19 48.227h-21.257v2.255c6.649 0 7.718 1.425 7.718 9.857V75.54c0 8.431-1.068 9.975-7.718 9.975-5.105-.712-8.55-3.444-13.3-8.669l-5.462-5.937c7.362-1.308 11.28-5.938 11.28-11.164 0-6.53-5.58-11.518-16.031-11.518h-20.9v2.255c6.649 0 7.718 1.425 7.718 9.857V75.54c0 8.431-1.069 9.975-7.718 9.975v2.256h23.631v-2.256c-6.649 0-7.718-1.544-7.718-9.975v-4.274h2.018l13.182 16.505h34.557c16.981 0 24.344-9.024 24.344-19.832 0-10.806-7.362-19.712-24.344-19.712zm-49.756 19.355V51.79h4.868c5.343 0 7.719 3.681 7.719 7.956 0 4.157-2.376 7.837-7.719 7.837h-4.868zm50.113 16.508h-.832c-4.274 0-4.868-1.068-4.868-6.531V51.79h5.7c12.35 0 14.605 9.024 14.605 16.031 0 7.243-2.256 16.269-14.605 16.269zM181.378 71.978l8.194-24.227c2.376-7.006 1.307-9.024-6.293-9.024v-2.376h22.325v2.376c-7.481 0-9.262 1.781-12.231 10.45L179.834 89.79h-1.543l-12.114-37.17-12.349 37.17h-1.544l-13.181-40.613c-2.85-8.669-4.75-10.45-11.638-10.45v-2.376h26.363v2.376c-7.007 0-8.908 1.662-6.413 9.024l7.956 24.227 11.994-35.627h2.257zm40.374 17.336c-13.062 0-23.75-9.618-23.75-21.376 0-11.637 10.689-21.257 23.75-21.257 13.063 0 23.75 9.62 23.75 21.257 0 11.758-10.687 21.376-23.75 21.376zm0-38.949c-10.924 0-14.725 9.855-14.725 17.574 0 7.839 3.801 17.576 14.725 17.576 11.045 0 14.845-9.737 14.845-17.576 0-7.719-3.8-17.574-14.845-17.574z" style="fill:#fbfdfd;fill-opacity:1;stroke-width:1.53222" transform="translate(-80.079 80.507) scale(.81021)"/>
      <path fill="#464342" d="M366.864 85.396v2.375H339.67v-2.375c7.957 0 9.382-2.018 9.382-13.895V52.502c0-11.877-1.425-13.776-9.382-13.776V36.35h24.581c12.231 0 19.002 6.294 19.002 14.727 0 8.194-6.771 14.606-19.002 14.606h-6.769V71.5c0 11.878 1.425 13.896 9.382 13.896zm-2.613-44.771h-6.769v20.664h6.769c6.651 0 9.738-4.631 9.738-10.212 0-5.7-3.087-10.452-9.738-10.452zm100.582 35.984-.594 2.137c-1.068 3.919-2.376 5.344-10.807 5.344h-1.663c-6.174 0-7.243-1.425-7.243-9.856v-5.462c9.263 0 9.976.83 9.976 7.006h2.256V58.083h-2.256c0 6.175-.713 7.006-9.976 7.006V51.79h6.53c8.433 0 9.738 1.425 10.807 5.344l.595 2.255h1.899l-.83-11.162h-34.914v2.255c6.649 0 7.719 1.425 7.719 9.857V75.54c0 7.713-.908 9.656-6.151 9.933-4.983-.761-8.404-3.479-13.085-8.627l-5.463-5.937c7.363-1.308 11.282-5.938 11.282-11.164 0-6.53-5.581-11.518-16.031-11.518h-20.9v2.255c6.649 0 7.718 1.425 7.718 9.857V75.54c0 8.431-1.068 9.975-7.718 9.975v2.256h23.632v-2.256c-6.649 0-7.719-1.544-7.719-9.975v-4.274h2.019l13.181 16.505h48.806l.713-11.161h-1.783zm-62.937-9.027V51.79h4.868c5.344 0 7.72 3.681 7.72 7.956 0 4.157-2.376 7.837-7.72 7.837h-4.868zm87.043 21.732c-4.75 0-8.907-2.493-10.688-4.038-.594.595-1.662 2.376-1.899 4.038h-2.257V72.928h2.375c.951 7.837 6.412 12.468 13.419 12.468 3.8 0 6.888-2.137 6.888-5.699 0-3.087-2.731-5.463-7.6-7.719l-6.769-3.206c-4.751-2.258-8.313-6.177-8.313-11.401 0-5.7 5.344-10.568 12.707-10.568 3.919 0 7.243 1.425 9.263 3.087.593-.475 1.187-1.782 1.544-3.208h2.256v14.014h-2.494c-.832-5.582-3.919-10.213-10.212-10.213-3.325 0-6.414 1.9-6.414 4.87 0 3.087 2.494 4.749 8.195 7.362l6.53 3.206c5.701 2.731 7.956 7.127 7.956 10.689 0 7.48-6.531 12.704-14.487 12.704zm36.575 0c-4.751 0-8.908-2.493-10.688-4.038-.594.595-1.662 2.376-1.899 4.038h-2.257V72.928h2.375c.95 7.837 6.412 12.468 13.419 12.468 3.8 0 6.888-2.137 6.888-5.699 0-3.087-2.731-5.463-7.601-7.719l-6.769-3.206c-4.75-2.258-8.313-6.177-8.313-11.401 0-5.7 5.344-10.568 12.707-10.568 3.919 0 7.243 1.425 9.263 3.087.593-.475 1.187-1.782 1.542-3.208h2.257v14.014h-2.493c-.832-5.582-3.919-10.213-10.212-10.213-3.325 0-6.414 1.9-6.414 4.87 0 3.087 2.494 4.749 8.195 7.362l6.53 3.206C537.745 68.652 540 73.048 540 76.61c0 7.48-6.531 12.704-14.486 12.704z" style="fill:#fbfdfd;fill-opacity:1;stroke-width:1.53222" transform="translate(-80.079 80.507) scale(.81021)"/>
    </g>
    <ellipse style="fill:#fff;fill-opacity:1;stroke-width:1.6;stroke-linecap:round;stroke-linejoin:round" cx="190.188" cy="49.388" rx="48.173" ry="47.96"/>
    <g style="stroke-width:1.23424" fill="#464342">
      <path d="M8.708 61.26c0 20.802 12.089 38.779 29.619 47.298L13.258 39.872a52.354 52.354 0 0 0-4.55 21.388Zm88.032-2.652c0-6.495-2.333-10.993-4.334-14.494-2.664-4.329-5.161-7.995-5.161-12.324 0-4.831 3.664-9.328 8.825-9.328.233 0 .454.029.681.042-9.35-8.566-21.807-13.796-35.489-13.796-18.36 0-34.513 9.42-43.91 23.688 1.233.037 2.395.063 3.382.063 5.497 0 14.006-.667 14.006-.667 2.833-.167 3.167 3.994.337 4.329 0 0-2.847.335-6.015.501L48.2 93.547l11.501-34.493-8.188-22.434c-2.83-.166-5.511-.501-5.511-.501-2.832-.166-2.5-4.496.332-4.329 0 0 8.679.667 13.843.667 5.496 0 14.006-.667 14.006-.667 2.835-.167 3.168 3.994.337 4.329 0 0-2.853.335-6.015.501l18.992 56.494 5.242-17.517c2.272-7.269 4.001-12.49 4.001-16.989z" style="fill:#207196;fill-opacity:1;stroke-width:1.53222" transform="translate(140.68) scale(.81021)"/>
      <path d="m62.184 65.857-15.768 45.819a52.552 52.552 0 0 0 14.846 2.141c6.12 0 11.989-1.058 17.452-2.979a4.615 4.615 0 0 1-.374-.724zm45.192-29.811c.226 1.674.354 3.471.354 5.404 0 5.333-.996 11.328-3.996 18.824l-16.053 46.413c15.624-9.111 26.133-26.038 26.133-45.426.001-9.137-2.333-17.729-6.438-25.215z" style="fill:#207196;fill-opacity:1;stroke-width:1.53222" transform="translate(140.68) scale(.81021)"/>
      <path d="M61.262 0C27.483 0 0 27.481 0 61.26c0 33.783 27.483 61.263 61.262 61.263 33.778 0 61.265-27.48 61.265-61.263C122.526 27.481 95.04 0 61.262 0Zm0 119.715c-32.23 0-58.453-26.223-58.453-58.455 0-32.23 26.222-58.451 58.453-58.451 32.229 0 58.45 26.221 58.45 58.451 0 32.232-26.221 58.455-58.45 58.455z" style="fill:#207196;fill-opacity:1;stroke-width:1.53222" transform="translate(140.68) scale(.81021)"/>
    </g>
  </g>
  <g style="stroke-width:.928661">
    <path d="M91.959 259.515c4.128-.9 8.48-.825 12.609.15v10.133c-3.378-.826-7.205-1.576-10.433 0-3.902 1.951-6.079 6.38-6.079 10.582-.225 4.203 1.2 8.932 4.954 11.333 3.452 2.252 7.88 1.802 11.633.751v10.132c-5.029 1.426-10.508 1.276-15.386-.525-5.854-2.177-10.508-7.28-12.309-13.285a28.097 28.097 0 0 1-.45-14.11c1.726-7.43 8.03-13.51 15.46-15.16m30.473-.526c5.103-.6 10.657.225 14.785 3.453 3.978 3.077 5.93 8.105 6.68 12.909.675 5.329.525 10.883-1.126 15.986-1.426 4.353-4.353 8.406-8.556 10.433-4.278 2.026-9.307 2.176-13.885 1.125-4.203-.975-7.956-3.752-10.057-7.58-2.927-5.104-3.453-11.183-3.227-16.962.225-4.954 1.5-10.132 4.803-13.96 2.702-3.077 6.605-4.954 10.583-5.404m1.576 9.682c-2.177.525-3.453 2.702-3.978 4.728-1.05 4.053-.9 8.256-.6 12.384.3 2.252.525 4.654 2.1 6.455 2.102 2.402 6.38 2.101 8.257-.375 1.276-1.577 1.651-3.603 1.876-5.554.45-3.453.526-6.98 0-10.433-.375-2.101-.976-4.278-2.477-5.854-1.35-1.351-3.377-1.801-5.178-1.351m200.167-9.006c4.353-1.126 8.932-.976 13.285-.075.075 3.377 0 6.754.075 10.207-3.303-.826-6.98-1.576-10.207-.15-3.753 1.726-6.005 5.704-6.305 9.682-.45 4.503.75 9.606 4.728 12.233 3.453 2.402 7.956 1.952 11.784.826-.075 3.377.075 6.83-.075 10.207-5.329 1.351-11.183 1.201-16.212-.976-5.554-2.401-9.907-7.505-11.483-13.36-1.2-4.502-1.35-9.306-.225-13.884 1.651-7.055 7.58-12.834 14.635-14.71m-173.598.3h14.485c1.726 7.805 3.377 15.686 4.878 23.567 1.351-7.956 3.228-15.762 5.104-23.567h14.86c1.952 14.185 3.828 28.37 5.705 42.48h-11.333c-1.051-9.682-1.952-19.439-3.078-29.12-2.326 9.681-4.728 19.438-7.055 29.12h-7.73c-2.477-9.682-4.879-19.439-7.43-29.196-.976 9.682-1.952 19.44-2.927 29.196h-10.883c1.801-14.11 3.602-28.295 5.404-42.48m51.937 0h14.485c1.726 7.805 3.377 15.686 4.878 23.567 1.426-7.881 3.228-15.762 5.104-23.567h14.786c1.951 14.185 3.827 28.37 5.704 42.48h-11.333c-1.051-9.682-2.027-19.439-3.078-29.12-2.326 9.681-4.653 19.438-7.055 29.12h-7.73c-2.477-9.757-4.954-19.439-7.43-29.196-.976 9.757-1.952 19.44-2.928 29.196h-10.882c1.876-14.11 3.677-28.295 5.479-42.48m48.259.15c7.73-.15 15.536 0 23.267-.075v9.081c-3.903.075-7.806 0-11.709 0v7.806h10.133v8.781H262.33v7.806h11.784v9.081h-23.267c-.075-14.185.075-28.295-.075-42.48m26.569-.15c4.878 0 9.682-.075 14.56 0 4.579.15 9.457 1.276 12.834 4.503 3.078 2.852 4.128 7.58 2.928 11.558-.976 3.227-3.378 5.854-6.38 7.28 3.002 6.38 6.08 12.76 9.157 19.139h-12.084c-3.152-6.53-6.23-13.06-9.457-19.514-.075 6.53 0 13.06 0 19.514h-11.483c-.075-14.11-.075-28.295-.075-42.48m11.483 8.18v10.133c2.102-.15 4.353-.225 6.08-1.501 2.026-1.501 1.8-4.579.525-6.53-1.576-1.876-4.353-1.876-6.605-2.101m51.937-8.106h23.192v9.081h-11.784v7.806h10.133v8.781h-10.133v7.806h11.859v9.081H340.76c-.075-14.26 0-28.445 0-42.555" style="clip-rule:evenodd;fill:#fdfdfd;fill-opacity:1;fill-rule:evenodd;stroke-width:.928661" transform="matrix(1.0726 0 0 1.08106 322.971 -174.908)"/>
    <g style="stroke-width:1.23733">
      <path d="M21.7 272.8c2.8-6.7 9.8-11.5 17.1-11.5h165.4c4.8-.1 9.6 1.7 13.1 4.9 4 3.6 6.3 9 6.2 14.4V344c-.1 9.5-8.4 18.1-17.9 18.3-20.1.1-40.2 0-60.3 0 2.7 6.7 5.4 13.3 8.1 20-12-6.6-23.8-13.4-35.9-19.9-26.4-.2-52.9 0-79.4-.1-9.5-.3-17.8-8.8-17.9-18.3-.1-20.7 0-41.4-.1-62 0-3.1.3-6.3 1.6-9.2" style="clip-rule:evenodd;fill:#945c87;fill-rule:evenodd;stroke-width:1.23733" transform="matrix(.80502 0 0 .81138 460.801 -212.01)"/>
      <path d="M102.5 274.3c3-3.2 8.8-2.2 11.1 1.5 1.2 1.9 1.3 4.5.3 6.5-4.2 8.4-6 17.7-7.6 26.8-1.9 11.9-3.5 24-2.9 36.1.2 3.1-1.3 6.8-4.6 7.6-3.1.7-6-1.4-8-3.6-9-9.7-14.1-22.2-17.8-34.7-3.7 7.3-7.4 14.7-11 22-2.5 5-5.2 10.1-9.2 14.1-1.7 1.7-4.6 3.2-6.8 1.5-3.3-2.9-4.1-7.5-5.5-11.4-5.3-18.3-8.3-37.2-11.4-56-.7-3.1.6-6.9 3.7-8.1 2.5-.9 5.8-1.1 7.9.8 1.5 1.3 1.9 3.4 2.2 5.3 2.2 14.6 4.7 29.1 8.3 43.4 6-11.4 12-22.8 18-34.3.9-1.7 2-3.4 3.6-4.4 2.2-1.4 5.4-1.3 7.3.7 1.5 1.6 2.1 3.9 2.5 6 1.8 9.4 4.2 18.8 7.7 27.7 1.5-13.5 3.4-27.2 8.3-39.9 1.1-2.7 2.1-5.4 3.9-7.6m33.9 7.3c6.5-.8 13.5 1.4 17.9 6.3 3.6 4.1 5.6 9.4 6.3 14.7 1.1 9.1-.6 18.7-5 26.8-2.5 4.6-5.7 9.1-10.3 11.8-6.7 4.1-15.7 3.6-22.2-.7-5.2-3.6-8.1-9.6-9.3-15.6-2.4-13.7 1.7-28.9 12-38.4 3-2.7 6.7-4.4 10.6-4.9m1.3 14c-3.1 1-5.1 3.9-6.8 6.5-4.2 6.8-5.4 15.7-2 23 .9 1.9 2.3 4 4.6 4.4 2.4.4 4.6-1 6.3-2.5 3.8-3.3 5.7-8.2 6.7-13.1 1-5.5.5-11.6-2.7-16.4-1.3-1.8-3.9-2.6-6.1-1.9m50.6-14c6.3-.8 13.2 1.2 17.6 5.9 4 4.3 6.1 10 6.7 15.8.9 8.8-.7 18-4.9 25.8-2.5 4.7-5.8 9.3-10.6 12.1-6.4 3.9-15 3.5-21.4-.3-4.3-2.6-7.2-7-8.9-11.7-4.5-14.3-.7-31.1 9.7-41.9 3.4-3 7.5-5.2 11.8-5.7m1.4 14c-3.4 1.2-5.4 4.5-7.2 7.4-3.8 6.7-4.8 15.4-1.3 22.5.9 2 2.6 3.9 4.9 4 2.5.1 4.7-1.5 6.5-3.2 3.9-3.8 5.6-9.2 6.2-14.5.6-4.9-.2-10.2-3.1-14.4-1.2-1.7-3.8-2.5-6-1.8" style="clip-rule:evenodd;fill:#fff;fill-rule:evenodd;stroke-width:1.23733" transform="matrix(.80502 0 0 .81138 460.801 -212.01)"/>
    </g>
  </g>
</svg>
